<mxfile host="app.diagrams.net" modified="2024-04-11T04:24:33.894Z" agent="Mozilla/5.0 (Windows NT 10.0; Win64; x64) AppleWebKit/537.36 (KHTML, like Gecko) Chrome/123.0.0.0 Safari/537.36" version="24.2.3" etag="AGBBeNipfmvTWNzm8Wy6" type="github">
  <diagram name="Page-1" id="Qa4kLt5X9asNKXMzRudD">
    <mxGraphModel>
      <root>
        <mxCell id="0" />
        <mxCell id="1" parent="0" />
      </root>
    </mxGraphModel>
  </diagram>
</mxfile>
